<svg xmlns="http://www.w3.org/2000/svg" width="237.443" height="92.297" viewBox="0 0 237.443 92.297">
  <g id="logo-footer" transform="translate(-538.573 -1168.563)">
    <path id="logo" d="M5.547,15.391a11.625,11.625,0,0,1-4.453-.9,12.474,12.474,0,0,1-3.906-2.539A11.967,11.967,0,0,1-5.547,7.93,12.116,12.116,0,0,1-6.406,2.5,28.872,28.872,0,0,1-4.3-7.344,34.754,34.754,0,0,1,.078-15.156a24.232,24.232,0,0,1,5.078-5.117,8.049,8.049,0,0,1,4.3-1.836,3.054,3.054,0,0,1,1.992.742,5.089,5.089,0,0,1,1.406,1.875,7.668,7.668,0,0,1,.625,2.5,5.921,5.921,0,0,1-.352,2.617q-.781-.547-2.891.391A15.314,15.314,0,0,0,5.859-10.82,23.429,23.429,0,0,0,1.8-5.312,17.14,17.14,0,0,0-.234,2.031,16.275,16.275,0,0,0,.039,6.563a8.661,8.661,0,0,0,1.25,3.047,5.29,5.29,0,0,0,1.875,1.719,4.771,4.771,0,0,0,2.227.547,7.545,7.545,0,0,0,5.156-2.109,20.451,20.451,0,0,0,4.3-5.9A61.544,61.544,0,0,0,18.516-5.2q1.719-5.273,3.281-11.68.469-1.953,1.211-4.844t1.6-6.289q.859-3.4,1.836-7.031t1.836-6.953q.859-3.32,1.641-6.172t1.25-4.648a42.813,42.813,0,0,0-5.156.313q-2.188.234-4.531.664A17.166,17.166,0,0,0,17.578-50.7q-.156-.078-.234-.43t-.156-.742q-.078-.469-.156-1.016a5.019,5.019,0,0,1,0-1.25q.078-.547.156-1.211a6.861,6.861,0,0,1,.313-1.367,28.9,28.9,0,0,1,4.727-.977q2.7-.352,5.039-.508,2.734-.234,5.625-.234a42.541,42.541,0,0,1,4.375.234q1.953.156,4.375.469a39.7,39.7,0,0,1,4.844.938,2.517,2.517,0,0,1,.7,1.25,2.9,2.9,0,0,1,.078.7,2.943,2.943,0,0,1-.234,1.172,3.909,3.909,0,0,1-.508.977,2.716,2.716,0,0,1-.9.82,12.719,12.719,0,0,0-2.148-.352q-1.289-.117-2.539-.273-1.406-.156-2.969-.234L29.688-15.859q-.313,1.328-1.094,4.18a62.927,62.927,0,0,1-2.148,6.328A74.445,74.445,0,0,1,23.164,1.8a35.265,35.265,0,0,1-4.492,6.68,23.559,23.559,0,0,1-5.859,4.961A13.938,13.938,0,0,1,5.547,15.391ZM49.766,1.25A10.841,10.841,0,0,1,44.922.313a8.308,8.308,0,0,1-2.93-2.3,8.38,8.38,0,0,1-1.484-2.969,11.386,11.386,0,0,1-.43-2.93,33.665,33.665,0,0,1,.391-4.961q.391-2.617.938-4.844t.977-3.789q.43-1.562.586-1.953A14.925,14.925,0,0,1,44.8-27.383a5.718,5.718,0,0,1,3.164-2.3q.781-.156,1.641-.312a13.082,13.082,0,0,1,1.445-.078,3.864,3.864,0,0,1,1.367.234q-2.109,5.391-3.32,8.984T47.266-15a26.751,26.751,0,0,0-.859,4.141,8.978,8.978,0,0,0,.625,5.313q1.016,1.8,4.141,1.8a6.126,6.126,0,0,0,3.906-1.523,16.649,16.649,0,0,0,3.438-3.945,13.962,13.962,0,0,1-.234-2.578,27.461,27.461,0,0,1,.43-4.883q.43-2.383,1.016-4.453a36.241,36.241,0,0,1,1.25-3.711q.664-1.641,1.133-2.578a5.479,5.479,0,0,1,1.563-2.3,5.01,5.01,0,0,1,2.266-.508,5.037,5.037,0,0,1,1.055-.039,4.946,4.946,0,0,1,.742.117q.938.234.938.938,0,1.25-.156,3.75a23.455,23.455,0,0,1-.937,5.156q-.547,2.188-1.055,3.711t-.977,2.578a10.191,10.191,0,0,1-.937,1.719q-.469.664-.859,1.211.156,2.344.391,3.75A8.492,8.492,0,0,0,64.727-5.2a2.131,2.131,0,0,0,.859,1.016,2.351,2.351,0,0,0,1.133.273A4.7,4.7,0,0,0,69.3-4.961a24.492,24.492,0,0,0,3.086-2.656q1.6-1.6,3.2-3.516t2.93-3.633q1.328-1.719,2.266-3.008t1.172-1.6a2.325,2.325,0,0,1,1.055-.859.81.81,0,0,1,.82.117,1.2,1.2,0,0,1,.352.859,2.358,2.358,0,0,1-.352,1.289,60.747,60.747,0,0,1-3.867,6.289,55.119,55.119,0,0,1-4.922,6.133A34.285,34.285,0,0,1,69.766-.859a8.8,8.8,0,0,1-5,1.875A4.1,4.1,0,0,1,61.445-.43a12.234,12.234,0,0,1-2.07-4.18A13.733,13.733,0,0,1,55.156-.273,9.918,9.918,0,0,1,49.766,1.25Zm26.641-2.5q3.437-14.453,5.508-23.2t3.164-13.359q1.25-5.469,1.719-7.578.234-1.484.391-2.891a20.775,20.775,0,0,0,.156-2.578,11.58,11.58,0,0,0-.234-2.422,5.944,5.944,0,0,1,1.367-.625q.742-.234,1.445-.391.859-.234,1.719-.391a8.8,8.8,0,0,1,1.563-.156,5.587,5.587,0,0,1,1.172.117.885.885,0,0,1,.7.508,1.909,1.909,0,0,1,.43,1.563q-.039,1.172-.2,2.422-.313,1.484-.7,3.2-.937,3.359-2.578,9.688-1.406,5.391-3.789,14.688T82.266.781a2.13,2.13,0,0,1-.937.547,3.713,3.713,0,0,1-1.016.156,9.477,9.477,0,0,1-1.172-.078A4.945,4.945,0,0,1,78.047.938a5.283,5.283,0,0,1-.937-.82A3.233,3.233,0,0,1,76.406-1.25Zm35.859-44.766a4.607,4.607,0,0,1-.9,1.68,5.924,5.924,0,0,1-1.484,1.328,4.819,4.819,0,0,1-1.68.664,1.611,1.611,0,0,1-1.406-.312,3.734,3.734,0,0,1-1.719-2.7,4.683,4.683,0,0,1,.7-2.734,7.865,7.865,0,0,1,1.953-2.187,5.062,5.062,0,0,1,2.031-1.055,1.645,1.645,0,0,1,1.445.352,3.248,3.248,0,0,1,.9,1.328,5.753,5.753,0,0,1,.352,1.836A5.517,5.517,0,0,1,112.266-46.016ZM101.484-29.375a3,3,0,0,1,1.484-.781,20.523,20.523,0,0,1,2.266-.508,17.384,17.384,0,0,1,2.148-.234,3.87,3.87,0,0,1,1.133.039,5.954,5.954,0,0,1-.391,1.641q-.469,1.562-1.172,3.672t-1.484,4.336q-.781,2.227-1.172,3.633t-.937,3.164q-.547,1.758-.977,3.438a22.189,22.189,0,0,0-.586,3.164,4.205,4.205,0,0,0,.234,2.266,3.065,3.065,0,0,0,.859,1.289,1.658,1.658,0,0,0,1.016.352,7.377,7.377,0,0,0,3.945-1.719,44.135,44.135,0,0,0,4.844-4.1q2.461-2.383,4.57-4.844a49.449,49.449,0,0,0,3.125-3.945,3,3,0,0,1,1.289-1.016,1.132,1.132,0,0,1,1.094.078,1.264,1.264,0,0,1,.469,1.016,3.03,3.03,0,0,1-.508,1.641,41.446,41.446,0,0,1-3.672,5.2,77.139,77.139,0,0,1-5.156,5.781,47.419,47.419,0,0,1-5.352,4.727A8.638,8.638,0,0,1,104.3.938a6.09,6.09,0,0,1-2.617-.43A8.257,8.257,0,0,1,99.336-.9a8.077,8.077,0,0,1-1.758-2.109A5.663,5.663,0,0,1,96.8-5.547a30.052,30.052,0,0,1,0-5.352,66.632,66.632,0,0,1,.859-6.953,57.024,57.024,0,0,1,1.6-6.758A14.556,14.556,0,0,1,101.484-29.375ZM152.422-16.25a59.7,59.7,0,0,1-5.312,6.68,48.378,48.378,0,0,1-6.289,5.781,34.464,34.464,0,0,1-6.8,4.1,16.432,16.432,0,0,1-6.758,1.563,9.794,9.794,0,0,1-3.711-.82,10.584,10.584,0,0,1-3.633-2.539A12.374,12.374,0,0,1,117.3-5.937a15.261,15.261,0,0,1-.586-6.641,20.576,20.576,0,0,1,1.992-6.758,30.78,30.78,0,0,1,4.141-6.523,23.554,23.554,0,0,1,5.547-4.922,11.52,11.52,0,0,1,6.211-1.953,5.505,5.505,0,0,1,4.3,1.484,4.763,4.763,0,0,1,1.172,3.672,11.265,11.265,0,0,1-1.367,4.453,18.033,18.033,0,0,1-2.7,3.672,27.358,27.358,0,0,1-3.32,2.969q-1.758,1.328-3.32,2.422-1.719,1.172-3.281,2.227t-2.734,1.914a8.5,8.5,0,0,0,.7,3.281,6.457,6.457,0,0,0,1.563,2.148,5.588,5.588,0,0,0,2.148,1.172,8.784,8.784,0,0,0,2.461.352,11.061,11.061,0,0,0,5.547-1.68,38.038,38.038,0,0,0,5.664-4.062,62.244,62.244,0,0,0,5.156-4.961q2.383-2.578,3.945-4.453a2.1,2.1,0,0,1,1.133-.742,1.111,1.111,0,0,1,.938.156,1.119,1.119,0,0,1,.352.938A2.939,2.939,0,0,1,152.422-16.25Zm-20-12.031a4.024,4.024,0,0,0-2.227.938,11.608,11.608,0,0,0-2.539,2.7,23.4,23.4,0,0,0-2.344,4.3,25.161,25.161,0,0,0-1.641,5.82q.938-.7,2.031-1.445t2.188-1.6a21.742,21.742,0,0,0,4.688-4.531,7.9,7.9,0,0,0,1.484-3.359,3.208,3.208,0,0,0-.312-2.148A1.53,1.53,0,0,0,132.422-28.281Zm43.2,8.516a1.321,1.321,0,0,1,.82-.586.955.955,0,0,1,.82.117,1.01,1.01,0,0,1,.352.781,3.111,3.111,0,0,1-.43,1.484,50.671,50.671,0,0,1-4.1,6.406,72.426,72.426,0,0,1-5.352,6.445,40.273,40.273,0,0,1-5.469,4.961A8.166,8.166,0,0,1,157.813,1.8a8.329,8.329,0,0,1-4.3-1.016,8.064,8.064,0,0,1-2.7-2.5,9.661,9.661,0,0,1-1.367-3.242,10.092,10.092,0,0,1-.234-3.242q.078-1.25.547-4.492t1.25-7.5q.781-4.258,1.758-9.141t2.07-9.414l-2.656.313a20.875,20.875,0,0,1-2.422.156,18.507,18.507,0,0,1-4.727-.586A18.311,18.311,0,0,1,141.719-40a.835.835,0,0,1-.547-.9,2.776,2.776,0,0,1,.469-1.172,4.016,4.016,0,0,1,.977-1.016,1.853,1.853,0,0,1,1.055-.43q1.484.156,3.2.273a35.38,35.38,0,0,0,3.75.039q1.484-.078,2.852-.234t2.7-.391q1.016-3.75,1.992-6.523a16.887,16.887,0,0,1,1.758-3.867,1.886,1.886,0,0,1,1.055-.664,9.128,9.128,0,0,1,1.758-.391,6.914,6.914,0,0,1,1.8,0,1.89,1.89,0,0,1,1.25.586,7.3,7.3,0,0,1,.313,3.2,42.094,42.094,0,0,1-.859,6.563,42.851,42.851,0,0,1,5.82.352q2.539.352,4.336.781a22.436,22.436,0,0,1,2.891.859q1.094.43,1.641.586a.779.779,0,0,1,.586.781,2.89,2.89,0,0,1-.234,1.289,2.682,2.682,0,0,1-.9,1.133,1.692,1.692,0,0,1-1.406.313,13.284,13.284,0,0,1-1.758-.312,19.877,19.877,0,0,0-2.344-.391q-1.367-.156-3.242-.312T166.25-40q-.469,0-1.055.039t-1.211.039q-.312,1.25-.586,2.461a22.631,22.631,0,0,1-.742,2.539q-1.016,3.125-2.344,6.8-1.172,3.2-2.812,7.344t-3.672,8.828a11.864,11.864,0,0,0,.117,5.117A5.926,5.926,0,0,0,155.391-4.3a4.086,4.086,0,0,0,2.5.938,4.681,4.681,0,0,0,2.852-.82A20.572,20.572,0,0,0,164.219-6.8q1.8-1.641,3.633-3.594t3.4-3.828q1.563-1.875,2.734-3.4T175.625-19.766Zm24.141,0a1.321,1.321,0,0,1,.82-.586.955.955,0,0,1,.82.117,1.01,1.01,0,0,1,.352.781,3.111,3.111,0,0,1-.43,1.484,50.671,50.671,0,0,1-4.1,6.406,72.426,72.426,0,0,1-5.352,6.445,40.273,40.273,0,0,1-5.469,4.961A8.166,8.166,0,0,1,181.953,1.8a8.329,8.329,0,0,1-4.3-1.016,8.064,8.064,0,0,1-2.7-2.5,9.661,9.661,0,0,1-1.367-3.242,10.092,10.092,0,0,1-.234-3.242q.078-1.25.547-4.492t1.25-7.5q.781-4.258,1.758-9.141t2.07-9.414l-2.656.313a20.875,20.875,0,0,1-2.422.156,18.507,18.507,0,0,1-4.727-.586A18.311,18.311,0,0,1,165.859-40a.835.835,0,0,1-.547-.9,2.776,2.776,0,0,1,.469-1.172,4.016,4.016,0,0,1,.977-1.016,1.853,1.853,0,0,1,1.055-.43q1.484.156,3.2.273a35.38,35.38,0,0,0,3.75.039q1.484-.078,2.852-.234t2.7-.391q1.016-3.75,1.992-6.523a16.887,16.887,0,0,1,1.758-3.867,1.886,1.886,0,0,1,1.055-.664,9.128,9.128,0,0,1,1.758-.391,6.914,6.914,0,0,1,1.8,0,1.89,1.89,0,0,1,1.25.586,7.3,7.3,0,0,1,.313,3.2,42.094,42.094,0,0,1-.859,6.563,42.851,42.851,0,0,1,5.82.352q2.539.352,4.336.781a22.436,22.436,0,0,1,2.891.859q1.094.43,1.641.586a.779.779,0,0,1,.586.781,2.89,2.89,0,0,1-.234,1.289,2.682,2.682,0,0,1-.9,1.133,1.692,1.692,0,0,1-1.406.313,13.284,13.284,0,0,1-1.758-.312,19.877,19.877,0,0,0-2.344-.391q-1.367-.156-3.242-.312T190.391-40q-.469,0-1.055.039t-1.211.039q-.312,1.25-.586,2.461a22.631,22.631,0,0,1-.742,2.539q-1.016,3.125-2.344,6.8-1.172,3.2-2.812,7.344t-3.672,8.828a11.864,11.864,0,0,0,.117,5.117A5.926,5.926,0,0,0,179.531-4.3a4.086,4.086,0,0,0,2.5.938,4.681,4.681,0,0,0,2.852-.82A20.572,20.572,0,0,0,188.359-6.8q1.8-1.641,3.633-3.594t3.4-3.828q1.563-1.875,2.734-3.4T199.766-19.766Zm30.7,3.516a59.7,59.7,0,0,1-5.312,6.68,48.378,48.378,0,0,1-6.289,5.781,34.464,34.464,0,0,1-6.8,4.1,16.432,16.432,0,0,1-6.758,1.563,9.794,9.794,0,0,1-3.711-.82,10.584,10.584,0,0,1-3.633-2.539,12.374,12.374,0,0,1-2.617-4.453,15.26,15.26,0,0,1-.586-6.641,20.576,20.576,0,0,1,1.992-6.758,30.781,30.781,0,0,1,4.141-6.523,23.553,23.553,0,0,1,5.547-4.922,11.52,11.52,0,0,1,6.211-1.953,5.505,5.505,0,0,1,4.3,1.484,4.763,4.763,0,0,1,1.172,3.672,11.265,11.265,0,0,1-1.367,4.453,18.033,18.033,0,0,1-2.7,3.672,27.358,27.358,0,0,1-3.32,2.969q-1.758,1.328-3.32,2.422-1.719,1.172-3.281,2.227t-2.734,1.914a8.5,8.5,0,0,0,.7,3.281,6.457,6.457,0,0,0,1.563,2.148A5.588,5.588,0,0,0,205.82-3.32a8.784,8.784,0,0,0,2.461.352,11.061,11.061,0,0,0,5.547-1.68,38.038,38.038,0,0,0,5.664-4.062,62.244,62.244,0,0,0,5.156-4.961q2.383-2.578,3.945-4.453a2.1,2.1,0,0,1,1.133-.742,1.111,1.111,0,0,1,.938.156,1.119,1.119,0,0,1,.352.938A2.939,2.939,0,0,1,230.469-16.25Zm-20-12.031a4.024,4.024,0,0,0-2.227.938,11.608,11.608,0,0,0-2.539,2.7,23.4,23.4,0,0,0-2.344,4.3,25.161,25.161,0,0,0-1.641,5.82q.938-.7,2.031-1.445t2.188-1.6a21.742,21.742,0,0,0,4.688-4.531,7.9,7.9,0,0,0,1.484-3.359,3.208,3.208,0,0,0-.312-2.148A1.53,1.53,0,0,0,210.469-28.281Z" transform="translate(545 1227)" fill="#fff"/>
    <path id="Path_71" data-name="Path 71" d="M3.024-6.588V-11.2H5.436c1.872,0,2.664.864,2.664,2.322,0,1.4-.792,2.286-2.664,2.286Zm6.75-2.286c0-2.052-1.386-3.672-4.338-3.672H1.386V0H3.024V-5.238H5.436C8.55-5.238,9.774-6.966,9.774-8.874ZM16-8.64a2.894,2.894,0,0,1,3.114,2.988H12.888A3.055,3.055,0,0,1,16-8.64Zm4.608,5.6H18.846a2.711,2.711,0,0,1-2.772,1.818,3.1,3.1,0,0,1-3.2-3.1h7.884a8.879,8.879,0,0,0,.054-.99,4.522,4.522,0,0,0-4.734-4.716c-2.88,0-4.878,1.962-4.878,5.076A4.752,4.752,0,0,0,16.074.162,4.435,4.435,0,0,0,20.61-3.042Zm4-2.322c0-2.286,1.188-2.988,2.754-2.988h.432v-1.692a3.322,3.322,0,0,0-3.186,1.782v-1.6H22.968V0h1.638ZM36.774-2.682c-.072-3.528-5.8-2.25-5.8-4.59,0-.792.72-1.368,1.926-1.368a1.9,1.9,0,0,1,2.142,1.71h1.638c-.108-1.926-1.548-3.1-3.726-3.1-2.2,0-3.618,1.242-3.618,2.754,0,3.672,5.832,2.394,5.832,4.59,0,.81-.72,1.458-2.016,1.458-1.386,0-2.232-.72-2.322-1.674H29.142C29.25-1.1,30.87.162,33.174.162,35.352.162,36.774-1.062,36.774-2.682ZM48.438-4.95a4.815,4.815,0,0,0-4.986-5.076A4.825,4.825,0,0,0,38.466-4.95,4.789,4.789,0,0,0,43.38.162,4.891,4.891,0,0,0,48.438-4.95Zm-8.3,0c0-2.484,1.566-3.654,3.294-3.654a3.314,3.314,0,0,1,3.33,3.654A3.349,3.349,0,0,1,43.38-1.278C41.67-1.278,40.14-2.448,40.14-4.95ZM57.816,0h1.62V-5.814c0-2.826-1.746-4.23-4.032-4.23A3.644,3.644,0,0,0,52.236-8.46v-1.4H50.6V0h1.638V-5.454c0-2.124,1.152-3.168,2.826-3.168,1.656,0,2.754,1.026,2.754,3.042Zm3.69-4.968c0,3.06,2.034,5.13,4.662,5.13a4.12,4.12,0,0,0,3.69-2V0h1.656V-9.864H69.858v1.8a4.094,4.094,0,0,0-3.672-1.962C63.54-10.026,61.506-8.046,61.506-4.968Zm8.352.018A3.375,3.375,0,0,1,66.51-1.278a3.378,3.378,0,0,1-3.33-3.69A3.331,3.331,0,0,1,66.51-8.6,3.38,3.38,0,0,1,69.858-4.95ZM74.286,0h1.638V-13.32H74.286ZM90.648-3.528c0,1.368-.972,2.178-2.592,2.178h-2.9V-5.778H88C89.6-5.778,90.648-4.914,90.648-3.528Zm-.324-5.634c0,1.278-.882,2.034-2.412,2.034H85.158V-11.2h2.718C89.478-11.2,90.324-10.4,90.324-9.162Zm1.962,5.8a3.132,3.132,0,0,0-2.484-3.1A2.936,2.936,0,0,0,92-9.36c0-1.746-1.332-3.186-3.978-3.186h-4.5V0H88.2C90.792,0,92.286-1.476,92.286-3.366ZM94.554,0h1.638V-13.32H94.554Zm13.788-4.95a4.815,4.815,0,0,0-4.986-5.076A4.825,4.825,0,0,0,98.37-4.95,4.789,4.789,0,0,0,103.284.162,4.891,4.891,0,0,0,108.342-4.95Zm-8.3,0c0-2.484,1.566-3.654,3.294-3.654a3.314,3.314,0,0,1,3.33,3.654,3.349,3.349,0,0,1-3.384,3.672C101.574-1.278,100.044-2.448,100.044-4.95Zm9.846-.018c0,3.06,2.034,5.13,4.68,5.13a4.122,4.122,0,0,0,3.672-2.016V.216a2.928,2.928,0,0,1-3.06,3.222,3.062,3.062,0,0,1-3.15-2h-1.62c.324,2.106,2.178,3.42,4.77,3.42A4.422,4.422,0,0,0,119.9.216V-9.864h-1.656v1.8a4.065,4.065,0,0,0-3.672-1.962C111.924-10.026,109.89-8.046,109.89-4.968Zm8.352.018a3.375,3.375,0,0,1-3.348,3.672,3.378,3.378,0,0,1-3.33-3.69,3.331,3.331,0,0,1,3.33-3.636A3.38,3.38,0,0,1,118.242-4.95Z" transform="translate(647 1256)" fill="#fff"/>
  </g>
</svg>
